PathFileType	4	(X/Y/Z)	6_coords_data.trc
DataRate	CameraRate	NumFrames	NumMarkers	Units	OrigDataRate	OrigDataStartFrame	OrigNumFrames
30.0	30.0	6	21	m	30.0	31	60
Frame#	Time	THUMB_TIP	THUMB_IP	THUMB_MCP	THUMB_CMC	INDEX_TIP	INDEX_DIP	INDEX_PIP	INDEX_MCP	MIDDLE_TIP	MIDDLE_DIP	MIDDLE_PIP	MIDDLE_MCP	RING_TIP	RING_DIP	RING_PIP	RING_MCP	PINKY_TIP	PINKY_DIP	PINKY_PIP	PINKY_MCP	WRIST
X1	Y1	Z1	X2	Y2	Z2	X3	Y3	Z3	X4	Y4	Z4	X5	Y5	Z5	X6	Y6	Z6	X7	Y7	Z7	X8	Y8	Z8	X9	Y9	Z9	X10	Y10	Z10	X11	Y11	Z11	X12	Y12	Z12	X13	Y13	Z13	X14	Y14	Z14	X15	Y15	Z15	X16	Y16	Z16	X17	Y17	Z17	X18	Y18	Z18	X19	Y19	Z19	X20	Y20	Z20	X21	Y21	Z21
29	0.9999999999999956	0.5397667555517901	-0.019927554630513322	-0.10909904070685184	0.5228028744485345	-0.02087594633209444	-0.12456924726962842	0.4926702664024796	-0.016622258752152508	-0.11803074022940277	0.4755455310007287	-0.017888062913105962	-0.07685998389379323	0.5670311576947977	0.03774324815486074	-0.1535556559267345	0.55221610219198	0.03876906255322421	-0.14318927588023128	0.5317457361002524	0.036833421337926886	-0.1287245865245523	0.5004832411936528	0.03539111446672205	-0.09984185367074988	0.5002293417606434	-0.024363074775806126	-0.09960247180278414	0.5158115155914802	-0.016179257112685974	-0.10387107662899925	0.533475735476831	0.006965460704789761	-0.10517756925867461	0.5119166963212548	0.035860926412183525	-0.07878802941347907	0.5114504732161219	-0.02541435496116984	-0.0879505852207523	0.5261979005961603	-0.01595599208081433	-0.09219943886544399	0.5430641202953982	0.002189134198973597	-0.08965680158348782	0.5245383270747086	0.026160568886092195	-0.06288207210613428	0.5958622239232856	0.023705491862425987	-0.08475611110766501	0.5807658018429371	0.018136473785366203	-0.07891795403292406	0.5617926723974456	0.012739088356291783	-0.07172764050883929	0.5298328147712121	0.006587022203119908	-0.05618405554404157	0.46228308100186083	-0.023011742144276814	-0.05198982011943101
30	1.0333333333333288	0.5418696950564268	-0.018240116568886244	-0.10682616448492727	0.5252028140988191	-0.01932751482953876	-0.12260693265912151	0.49478694700138726	-0.015856907633845174	-0.11698110699486855	0.47633948804184484	-0.017868492794982704	-0.07641591522809038	0.5695898928322787	0.03701222655401981	-0.14968640338373446	0.5543302891320667	0.03837954058749471	-0.14002850779275083	0.5332093743496573	0.037002879274067424	-0.12646305183350243	0.5006167144364233	0.03592580655664701	-0.09907337260679977	0.5024693687797857	-0.023903843140031245	-0.09852036349484206	0.5178810113191511	-0.015140745145980294	-0.1022202807622252	0.5349201146897588	0.00849597494248533	-0.10283993371773731	0.5113598235034308	0.03684916039312425	-0.07759795528859825	0.5134852679934865	-0.025132320271120112	-0.08695416761078475	0.5279310568836977	-0.01488330405524485	-0.09031226974535095	0.5439223563234369	0.0039040974460494704	-0.0869223042502808	0.5236565080060942	0.027595899213033848	-0.061179057465689274	0.5957488800785212	0.025889272256693907	-0.08113008839646907	0.5805840060209894	0.0201847641048305	-0.07560874964898029	0.5615182383537062	0.014555557288978727	-0.06885445080442598	0.5292366956235178	0.00812287456366545	-0.054109755388294545	0.46228308100186083	-0.023011742144276925	-0.051989820119430985
31	1.0666666666666622	0.5444837976544814	-0.01597210342421962	-0.1034934542278455	0.5283274766836333	-0.017409919531579	-0.11976938669048354	0.4975906778583985	-0.015068270659336691	-0.11545825243878513	0.4773657714654095	-0.017877245145528797	-0.07579778315599978	0.5727929822617561	0.03707325421509655	-0.14456668294886416	0.5569718943312456	0.038582988042230926	-0.13588256638664195	0.535075525790507	0.03753196892121802	-0.12357589191563156	0.5008730654205966	0.03642707971741854	-0.09822619727265719	0.5055171829975824	-0.023352241275409136	-0.0969148602500085	0.5207030104795505	-0.013951820230561407	-0.09991864583947446	0.5367037943396369	0.010407311673848452	-0.09978765451777644	0.5105731935061568	0.038014524730465404	-0.07631040151986587	0.5163159903333168	-0.02470511458408453	-0.08537229892399956	0.5302663185722496	-0.013522931963357077	-0.08768468597264314	0.5449268285259737	0.006143180371716572	-0.0833842845354491	0.5223774788258062	0.02941772727021419	-0.05920695778559534	0.5954782382861636	0.02887073850544597	-0.07617307403355655	0.5802149726673428	0.022994121704453252	-0.07112350993121963	0.5610397838716433	0.017017386467111706	-0.06500772792464005	0.5282809417023112	0.010165721095542812	-0.05156167302512249	0.4622830810018609	-0.023011742144276925	-0.05198982011943101
32	1.0999999999999952	0.5476152507688342	-0.013003376101822117	-0.09916600061283537	0.5320710668215776	-0.015051008523182419	-0.11596437990611375	0.5010666922872798	-0.01424065409566111	-0.11333910174203407	0.47862066565208294	-0.017930008005762832	-0.07496652617017482	0.5764419351184941	0.03798453674283564	-0.13816684512505145	0.5599891877983967	0.03941183216583832	-0.13073247000695948	0.5372490559103236	0.038418836343538154	-0.1200595981343126	0.5012483143501355	0.036845519680792416	-0.09736362105036056	0.5095417521994761	-0.02280590023510498	-0.09449571398431006	0.5242759975247298	-0.012511838911457462	-0.09671704605318779	0.5387289575711468	0.012787449546594054	-0.09603330676590544	0.5095420198248573	0.039304692747539116	-0.07503077360877977	0.5199581926241104	-0.02409129029530732	-0.08307486150817203	0.5331347802947748	-0.011833524590833311	-0.08413538840152296	0.5459004887309216	0.00892680323046513	-0.07901430883999361	0.5206234106452976	0.03160389385211737	-0.05707029557006865	0.5947672864422204	0.032850059320513214	-0.07000042398602102	0.5794167336473257	0.02670853247606686	-0.06556847442515129	0.5601353900162712	0.020275662999055588	-0.060309197186506125	0.5269046882393802	0.012611051892563396	-0.04856791757133758	0.4622830810018609	-0.023011742144276925	-0.05198982011943101
33	1.1333333333333284	0.5510415666124016	-0.009329660600049805	-0.09375266402032179	0.5362341701934978	-0.012256628115728918	-0.11107819063441343	0.50513362709729	-0.013362935350774818	-0.11048463910118062	0.48008949144562735	-0.017984812829490493	-0.07386060985762438	0.5803588517515621	0.03961242107297358	-0.13032947985143592	0.5632609721130847	0.040754177202876996	-0.12446783291495422	0.5396706956602705	0.039556591174349065	-0.1158611798149349	0.5018181659198652	0.03712023944358134	-0.09649919963480555	0.5144432456767032	-0.02201527731509556	-0.09093277510879388	0.5284664486721612	-0.010663718931157029	-0.09251135041716929	0.5408616545720933	0.01569689226830806	-0.0915697571456745	0.5083071140889741	0.04064135534315938	-0.07384622541973623	0.524619743660974	-0.023149867005394564	-0.07969412128546438	0.5365200630460416	-0.00960884507284454	-0.07954205697149569	0.5467557815631818	0.012378249881908276	-0.07388717404710579	0.5183713000854662	0.034064046919834	-0.0549459953068292	0.5933827152205273	0.03774388032442111	-0.06267577228837559	0.5779660390326713	0.03125168032367909	-0.05904569867078102	0.5586155753512942	0.024248917660115277	-0.05488241998763879	0.5249756688819067	0.015474966874923224	-0.04527732075078092	0.46228308100186083	-0.023011742144276925	-0.05198982011943101
34	1.1666666666666616	0.5545554120258432	-0.004591947012452358	-0.08763881894400649	0.5404729940280953	-0.008793194895273637	-0.10530333194504321	0.5095788436629641	-0.012277384275288017	-0.10679728561931101	0.4816900885511675	-0.017976363811799012	-0.07245155851161	0.5839630764921973	0.04227031259234615	-0.12141108862045658	0.5663130077205087	0.04285254546757589	-0.11739411497930985	0.5420105988360215	0.041087323460860414	-0.11120648646119333	0.5025204829436957	0.03720953848158981	-0.09574266984092741	0.5197712890171287	-0.020569331172939687	-0.08624800848535666	0.5328490163497329	-0.008089118939350715	-0.08735134452602311	0.5428219930441408	0.019286974436281135	-0.08664508866481682	0.5068278786236413	0.04196563235737771	-0.07299774009515408	0.5299276018635077	-0.021358701944119818	-0.07521574139507292	0.540012024869806	-0.006457394021257223	-0.07409527951795203	0.5471406855685883	0.016709513744679216	-0.06838068765096511	0.5155275921139721	0.03678764181358862	-0.05314251422111549	0.590891456522866	0.043814387540884736	-0.05460429596447372	0.5754788591733525	0.03685179693444729	-0.05196342963144607	0.5561563823505171	0.02915050269908037	-0.04910966448145715	0.5223201939040437	0.01885802851004681	-0.042034300357765564	0.46228308100186094	-0.023011742144276925	-0.05198982011943101
